<svg width="133" height="32" viewBox="0 0 133 32" fill="none" xmlns="http://www.w3.org/2000/svg">
<path d="M33.4924 18.6667C32.3766 18.6667 31.4016 18.4316 30.5674 17.9615C29.7441 17.4808 29.1104 16.8024 28.6662 15.9263C28.2221 15.0502 28 14.0139 28 12.8173C28 11.6314 28.2221 10.6004 28.6662 9.72436C29.1104 8.84829 29.7441 8.17521 30.5674 7.70513C31.4016 7.23504 32.3766 7 33.4924 7C34.2832 7 35.0144 7.12286 35.6861 7.36859C36.3686 7.60363 36.9427 7.95085 37.4085 8.41026L36.8235 9.6282C36.2819 9.19017 35.7457 8.875 35.2148 8.68269C34.6948 8.4797 34.1261 8.37821 33.5086 8.37821C32.3062 8.37821 31.3745 8.76282 30.7137 9.53205C30.0637 10.3013 29.7387 11.3964 29.7387 12.8173C29.7387 14.2489 30.0637 15.3547 30.7137 16.1346C31.3745 16.9038 32.3062 17.2885 33.5086 17.2885C34.1261 17.2885 34.6948 17.1923 35.2148 17C35.7457 16.797 36.2819 16.4765 36.8235 16.0385L37.4085 17.2564C36.9427 17.7158 36.3686 18.0684 35.6861 18.3141C35.0144 18.5491 34.2832 18.6667 33.4924 18.6667Z" fill="#212121"/>
<path d="M47.3505 10.4615V18.5385H45.7255V17.1603C45.4872 17.641 45.1297 18.0096 44.6531 18.266C44.1873 18.5224 43.6402 18.6506 43.0119 18.6506C42.286 18.6506 41.6469 18.4797 41.0944 18.1378C40.5528 17.7959 40.1303 17.3152 39.8269 16.6955C39.5236 16.0652 39.3719 15.3333 39.3719 14.5C39.3719 13.6667 39.5236 12.9295 39.8269 12.2885C40.1411 11.6474 40.5744 11.1506 41.1269 10.7981C41.6794 10.4455 42.3077 10.2692 43.0119 10.2692C43.6402 10.2692 44.1873 10.4028 44.6531 10.6699C45.1189 10.9263 45.4764 11.2949 45.7255 11.7756V10.4615H47.3505ZM43.4019 17.3686C44.1385 17.3686 44.7072 17.1175 45.1081 16.6154C45.5197 16.1026 45.7255 15.3868 45.7255 14.4679C45.7255 13.5385 45.5197 12.8226 45.1081 12.3205C44.7072 11.8184 44.1331 11.5673 43.3856 11.5673C42.649 11.5673 42.0694 11.8291 41.6469 12.3526C41.2352 12.8654 41.0294 13.5812 41.0294 14.5C41.0294 15.4081 41.2352 16.1132 41.6469 16.6154C42.0694 17.1175 42.6544 17.3686 43.4019 17.3686Z" fill="#212121"/>
<path d="M54.4902 10.2692C54.7394 10.2692 54.9993 10.3066 55.2702 10.3814L55.2377 11.8558C54.9452 11.7489 54.6256 11.6955 54.2789 11.6955C53.5315 11.6955 52.9681 11.9199 52.589 12.3686C52.2207 12.8066 52.0365 13.3622 52.0365 14.0353V18.5385H50.4115V12.7372C50.4115 11.8932 50.3682 11.1346 50.2815 10.4615H51.809L51.9552 11.9199C52.1719 11.3857 52.5077 10.9797 52.9627 10.7019C53.4177 10.4135 53.9269 10.2692 54.4902 10.2692Z" fill="#212121"/>
<path d="M63.9996 14.5321H58.1498C58.2039 16.4231 59.076 17.3686 60.766 17.3686C61.7085 17.3686 62.5697 17.0641 63.3497 16.4551L63.8534 17.609C63.4851 17.9295 63.0138 18.1859 62.4397 18.3782C61.8764 18.5598 61.3076 18.6506 60.7335 18.6506C59.4227 18.6506 58.3935 18.2821 57.646 17.5449C56.8986 16.797 56.5248 15.7767 56.5248 14.484C56.5248 13.6613 56.6873 12.9295 57.0123 12.2885C57.3481 11.6474 57.814 11.1506 58.4098 10.7981C59.0056 10.4455 59.6827 10.2692 60.441 10.2692C61.546 10.2692 62.4126 10.6218 63.0409 11.3269C63.6801 12.0321 63.9996 13.0096 63.9996 14.2596V14.5321ZM60.4735 11.4712C59.856 11.4712 59.3523 11.6528 58.9623 12.016C58.5723 12.3793 58.3231 12.8974 58.2148 13.5705H62.5534C62.4884 12.8868 62.2772 12.3686 61.9197 12.016C61.5622 11.6528 61.0801 11.4712 60.4735 11.4712Z" fill="#212121"/>
<path d="M73.5203 14.5321H67.6704C67.7246 16.4231 68.5966 17.3686 70.2866 17.3686C71.2291 17.3686 72.0903 17.0641 72.8703 16.4551L73.374 17.609C73.0057 17.9295 72.5345 18.1859 71.9603 18.3782C71.397 18.5598 70.8283 18.6506 70.2541 18.6506C68.9433 18.6506 67.9142 18.2821 67.1667 17.5449C66.4192 16.797 66.0455 15.7767 66.0455 14.484C66.0455 13.6613 66.208 12.9295 66.5329 12.2885C66.8688 11.6474 67.3346 11.1506 67.9304 10.7981C68.5262 10.4455 69.2033 10.2692 69.9616 10.2692C71.0666 10.2692 71.9332 10.6218 72.5616 11.3269C73.2007 12.0321 73.5203 13.0096 73.5203 14.2596V14.5321ZM69.9941 11.4712C69.3766 11.4712 68.8729 11.6528 68.4829 12.016C68.0929 12.3793 67.8437 12.8974 67.7354 13.5705H72.0741C72.0091 12.8868 71.7978 12.3686 71.4403 12.016C71.0828 11.6528 70.6008 11.4712 69.9941 11.4712Z" fill="#212121"/>
<path d="M80.1322 10.2692C80.3814 10.2692 80.6414 10.3066 80.9122 10.3814L80.8797 11.8558C80.5872 11.7489 80.2676 11.6955 79.921 11.6955C79.1735 11.6955 78.6102 11.9199 78.231 12.3686C77.8627 12.8066 77.6785 13.3622 77.6785 14.0353V18.5385H76.0536V12.7372C76.0536 11.8932 76.0102 11.1346 75.9236 10.4615H77.451L77.5973 11.9199C77.8139 11.3857 78.1498 10.9797 78.6048 10.7019C79.0598 10.4135 79.5689 10.2692 80.1322 10.2692Z" fill="#212121"/>
<path d="M93.0276 18.6667C91.9118 18.6667 90.9368 18.4316 90.1026 17.9615C89.2793 17.4808 88.6456 16.8024 88.2014 15.9263C87.7573 15.0502 87.5352 14.0139 87.5352 12.8173C87.5352 11.6314 87.7573 10.6004 88.2014 9.72436C88.6456 8.84829 89.2793 8.17521 90.1026 7.70513C90.9368 7.23504 91.9118 7 93.0276 7C93.8184 7 94.5496 7.12286 95.2213 7.36859C95.9038 7.60363 96.4779 7.95085 96.9437 8.41026L96.3587 9.6282C95.8171 9.19017 95.2809 8.875 94.75 8.68269C94.23 8.4797 93.6613 8.37821 93.0438 8.37821C91.8414 8.37821 90.9097 8.76282 90.2489 9.53205C89.5989 10.3013 89.2739 11.3964 89.2739 12.8173C89.2739 14.2489 89.5989 15.3547 90.2489 16.1346C90.9097 16.9038 91.8414 17.2885 93.0438 17.2885C93.6613 17.2885 94.23 17.1923 94.75 17C95.2809 16.797 95.8171 16.4765 96.3587 16.0385L96.9437 17.2564C96.4779 17.7158 95.9038 18.0684 95.2213 18.3141C94.5496 18.5491 93.8184 18.6667 93.0276 18.6667Z" fill="#212121"/>
<path d="M106.886 10.4615V18.5385H105.261V17.1603C105.022 17.641 104.665 18.0096 104.188 18.266C103.722 18.5224 103.175 18.6506 102.547 18.6506C101.821 18.6506 101.182 18.4797 100.63 18.1378C100.088 17.7959 99.6655 17.3152 99.3621 16.6955C99.0588 16.0652 98.9071 15.3333 98.9071 14.5C98.9071 13.6667 99.0588 12.9295 99.3621 12.2885C99.6763 11.6474 100.11 11.1506 100.662 10.7981C101.215 10.4455 101.843 10.2692 102.547 10.2692C103.175 10.2692 103.722 10.4028 104.188 10.6699C104.654 10.9263 105.012 11.2949 105.261 11.7756V10.4615H106.886ZM102.937 17.3686C103.674 17.3686 104.242 17.1175 104.643 16.6154C105.055 16.1026 105.261 15.3868 105.261 14.4679C105.261 13.5385 105.055 12.8226 104.643 12.3205C104.242 11.8184 103.668 11.5673 102.921 11.5673C102.184 11.5673 101.605 11.8291 101.182 12.3526C100.77 12.8654 100.565 13.5812 100.565 14.5C100.565 15.4081 100.77 16.1132 101.182 16.6154C101.605 17.1175 102.19 17.3686 102.937 17.3686Z" fill="#212121"/>
<path d="M119.29 10.2692C121.11 10.2692 122.02 11.3483 122.02 13.5064V18.5385H120.379V13.5865C120.379 12.8921 120.254 12.3846 120.005 12.0641C119.767 11.7436 119.377 11.5833 118.835 11.5833C118.207 11.5833 117.709 11.797 117.34 12.2244C116.983 12.6517 116.804 13.234 116.804 13.9712V18.5385H115.163V13.5865C115.163 12.8921 115.038 12.3846 114.789 12.0641C114.551 11.7436 114.161 11.5833 113.619 11.5833C112.991 11.5833 112.493 11.797 112.124 12.2244C111.756 12.6517 111.572 13.234 111.572 13.9712V18.5385H109.947V12.7372C109.947 11.8932 109.903 11.1346 109.817 10.4615H111.344L111.49 11.8077C111.729 11.3162 112.07 10.937 112.514 10.6699C112.958 10.4028 113.478 10.2692 114.074 10.2692C115.342 10.2692 116.17 10.7874 116.56 11.8237C116.809 11.3429 117.172 10.9637 117.649 10.6859C118.137 10.4081 118.684 10.2692 119.29 10.2692Z" fill="#212121"/>
<path d="M129.36 10.2692C130.064 10.2692 130.693 10.4455 131.245 10.7981C131.798 11.1506 132.225 11.6474 132.529 12.2885C132.843 12.9295 133 13.6667 133 14.5C133 15.3333 132.848 16.0652 132.545 16.6955C132.242 17.3152 131.814 17.7959 131.261 18.1378C130.709 18.4797 130.075 18.6506 129.36 18.6506C128.732 18.6506 128.179 18.5224 127.703 18.266C127.237 17.9989 126.885 17.6197 126.646 17.1282V22H125.021V12.7372C125.021 11.8932 124.978 11.1346 124.891 10.4615H126.419L126.581 11.9519C126.798 11.4177 127.15 11.0064 127.638 10.7179C128.125 10.4188 128.699 10.2692 129.36 10.2692ZM128.986 17.3686C129.723 17.3686 130.297 17.1175 130.709 16.6154C131.12 16.1132 131.326 15.4081 131.326 14.5C131.326 13.5812 131.12 12.8654 130.709 12.3526C130.297 11.8291 129.723 11.5673 128.986 11.5673C128.228 11.5673 127.648 11.8184 127.248 12.3205C126.847 12.8226 126.646 13.5385 126.646 14.4679C126.646 15.3974 126.847 16.1132 127.248 16.6154C127.659 17.1175 128.239 17.3686 128.986 17.3686Z" fill="#212121"/>
<path d="M11.0891 5.1813L3.13525 18.6319L23.2838 18.6636L11.9011 4.36328L11.0891 5.1813Z" fill="#414142"/>
<path d="M15.5037 0.886993L14.2598 0L2.18479 16.9347L3.42877 17.8217L15.5037 0.886993Z" fill="#414142"/>
<path d="M20.8019 17.8196L22.0459 16.9326L10.7715 1.12061L9.52749 2.0076L20.8019 17.8196Z" fill="#EE4823"/>
<path d="M12.0402 5.43709C12.0402 5.43709 12.2497 8.97024 10.7219 13.8753C10.0756 15.843 9.29729 17.4442 8.04843 18.6633C4.964 18.6633 1 18.6047 1 18.6047L11.1755 4.32324L12.0402 5.43709Z" fill="#F2AB1D"/>
<path d="M12.1186 4.60938C12.1186 4.60938 10.9274 7.80301 14.2401 13.544C17.5995 18.4005 23.2889 18.6645 23.2889 18.6645L13.6276 5.13056L12.1186 4.60938Z" fill="#EE4823"/>
<path d="M5.24627 30.2308H1.75522L1.01822 31.9231H0L3.07406 25.0769H3.91773L7.00149 31.9231H5.98327L5.24627 30.2308ZM4.90686 29.4423L3.50074 26.1827L2.09463 29.4423H4.90686Z" fill="#EE0978"/>
<path d="M10.0291 25.0769H12.8995C13.6236 25.0769 14.186 25.2532 14.5869 25.6058C14.9941 25.9519 15.1978 26.4263 15.1978 27.0288C15.1978 27.6314 14.9909 28.109 14.5772 28.4615C14.1699 28.8077 13.6107 28.9808 12.8995 28.9808H11.0279V31.9231H10.0291V25.0769ZM12.7832 28.1923C13.2616 28.1923 13.6204 28.0929 13.8596 27.8942C14.1052 27.6955 14.2281 27.4071 14.2281 27.0288C14.2281 26.6571 14.1052 26.3718 13.8596 26.1731C13.6204 25.9744 13.2616 25.875 12.7832 25.875H11.0279V28.1923H12.7832Z" fill="#EE0978"/>
<path d="M18.5453 25.0769H21.4158C22.1398 25.0769 22.7023 25.2532 23.1031 25.6058C23.5104 25.9519 23.714 26.4263 23.714 27.0288C23.714 27.6314 23.5072 28.109 23.0934 28.4615C22.6861 28.8077 22.1269 28.9808 21.4158 28.9808H19.5442V31.9231H18.5453V25.0769ZM21.2994 28.1923C21.7778 28.1923 22.1366 28.0929 22.3758 27.8942C22.6215 27.6955 22.7443 27.4071 22.7443 27.0288C22.7443 26.6571 22.6215 26.3718 22.3758 26.1731C22.1366 25.9744 21.7778 25.875 21.2994 25.875H19.5442V28.1923H21.2994Z" fill="#EE0978"/>
<path d="M27.0616 25.0769H28.0604V31.0962H31.4157V31.9231H27.0616V25.0769Z" fill="#EE0978"/>
<path d="M34.5456 25.0769H35.5444V31.9231H34.5456V25.0769Z" fill="#EE0978"/>
<path d="M42.3186 32C41.6527 32 41.0708 31.859 40.573 31.5769C40.0817 31.2885 39.7035 30.8814 39.4384 30.3558C39.1734 29.8301 39.0409 29.2083 39.0409 28.4904C39.0409 27.7788 39.1734 27.1603 39.4384 26.6346C39.7035 26.109 40.0817 25.7051 40.573 25.4231C41.0708 25.141 41.6527 25 42.3186 25C42.7905 25 43.2269 25.0737 43.6277 25.2212C44.035 25.3622 44.3776 25.5705 44.6556 25.8462L44.3065 26.5769C43.9833 26.3141 43.6633 26.125 43.3465 26.0096C43.0362 25.8878 42.6968 25.8269 42.3283 25.8269C41.6107 25.8269 41.0547 26.0577 40.6603 26.5192C40.2724 26.9808 40.0785 27.6378 40.0785 28.4904C40.0785 29.3494 40.2724 30.0128 40.6603 30.4808C41.0547 30.9423 41.6107 31.1731 42.3283 31.1731C42.6968 31.1731 43.0362 31.1154 43.3465 31C43.6633 30.8782 43.9833 30.6859 44.3065 30.4231L44.6556 31.1538C44.3776 31.4295 44.035 31.641 43.6277 31.7885C43.2269 31.9295 42.7905 32 42.3186 32Z" fill="#EE0978"/>
<path d="M52.4326 30.2308H48.9415L48.2045 31.9231H47.1863L50.2604 25.0769H51.1041L54.1878 31.9231H53.1696L52.4326 30.2308ZM52.0932 29.4423L50.6871 26.1827L49.281 29.4423H52.0932Z" fill="#EE0978"/>
<path d="M58.0401 25.9038H55.703V25.0769H61.3857V25.9038H59.0486V31.9231H58.0401V25.9038Z" fill="#EE0978"/>
<path d="M64.4437 25.0769H65.4426V31.9231H64.4437V25.0769Z" fill="#EE0978"/>
<path d="M72.1488 32C71.4959 32 70.927 31.859 70.4421 31.5769C69.9637 31.2885 69.592 30.8814 69.3269 30.3558C69.0683 29.8301 68.939 29.2115 68.939 28.5C68.939 27.7821 69.0683 27.1603 69.3269 26.6346C69.5855 26.109 69.9572 25.7051 70.4421 25.4231C70.927 25.141 71.4959 25 72.1488 25C72.8082 25 73.3772 25.141 73.8556 25.4231C74.3404 25.7051 74.7122 26.109 74.9708 26.6346C75.2294 27.1603 75.3587 27.7788 75.3587 28.4904C75.3587 29.2083 75.2294 29.8301 74.9708 30.3558C74.7122 30.8814 74.3404 31.2885 73.8556 31.5769C73.3707 31.859 72.8018 32 72.1488 32ZM72.1488 31.1923C72.8406 31.1923 73.3772 30.9583 73.7586 30.4904C74.1465 30.0224 74.3404 29.3558 74.3404 28.4904C74.3404 27.6314 74.1465 26.9712 73.7586 26.5096C73.3772 26.0417 72.8406 25.8077 72.1488 25.8077C71.4571 25.8077 70.9205 26.0417 70.5391 26.5096C70.1576 26.9712 69.9669 27.6314 69.9669 28.4904C69.9669 29.3558 70.1576 30.0224 70.5391 30.4904C70.927 30.9583 71.4635 31.1923 72.1488 31.1923Z" fill="#EE0978"/>
<path d="M84.5352 25.0769V31.9231H83.7691L79.8126 26.75V31.9231H78.872V25.0769H79.6284L83.5946 30.2596V25.0769H84.5352Z" fill="#EE0978"/>
<path d="M90.5379 32C90.0013 32 89.51 31.9295 89.0639 31.7885C88.6243 31.6474 88.2428 31.4359 87.9196 31.1538L88.2784 30.4231C88.6146 30.6923 88.9637 30.8878 89.3257 31.0096C89.6877 31.1314 90.095 31.1923 90.5476 31.1923C91.0648 31.1923 91.4656 31.0962 91.75 30.9038C92.0345 30.7115 92.1767 30.4391 92.1767 30.0865C92.1767 29.7917 92.0442 29.5705 91.7791 29.4231C91.5141 29.2692 91.0939 29.1282 90.5185 29C89.969 28.8846 89.5197 28.7532 89.1705 28.6058C88.8214 28.4519 88.5467 28.25 88.3463 28C88.1459 27.7436 88.0457 27.4167 88.0457 27.0192C88.0457 26.6218 88.1523 26.2724 88.3657 25.9712C88.579 25.6635 88.8796 25.4263 89.2675 25.2596C89.6619 25.0865 90.1144 25 90.6252 25C91.11 25 91.5626 25.0737 91.9828 25.2212C92.4095 25.3686 92.765 25.5769 93.0495 25.8462L92.6907 26.5769C92.3739 26.3141 92.0474 26.1218 91.7113 26C91.3751 25.8718 91.0163 25.8077 90.6348 25.8077C90.1371 25.8077 89.7459 25.9135 89.4615 26.125C89.177 26.3301 89.0348 26.6122 89.0348 26.9712C89.0348 27.2788 89.1576 27.5128 89.4033 27.6731C89.6554 27.8333 90.0562 27.9776 90.6058 28.1058C91.1811 28.234 91.6466 28.3686 92.0022 28.5096C92.3578 28.6506 92.6422 28.8429 92.8555 29.0865C93.0689 29.3301 93.1756 29.6442 93.1756 30.0288C93.1756 30.4263 93.0689 30.7724 92.8555 31.0673C92.6422 31.3622 92.3351 31.5929 91.9343 31.7596C91.5399 31.9199 91.0745 32 90.5379 32Z" fill="#EE0978"/>
<path d="M104.235 32C103.582 32 103.013 31.859 102.528 31.5769C102.049 31.2885 101.678 30.8814 101.413 30.3558C101.154 29.8301 101.025 29.2115 101.025 28.5C101.025 27.7821 101.154 27.1603 101.413 26.6346C101.671 26.109 102.043 25.7051 102.528 25.4231C103.013 25.141 103.582 25 104.235 25C104.894 25 105.463 25.141 105.941 25.4231C106.426 25.7051 106.798 26.109 107.056 26.6346C107.315 27.1603 107.444 27.7788 107.444 28.4904C107.444 29.2083 107.315 29.8301 107.056 30.3558C106.798 30.8814 106.426 31.2885 105.941 31.5769C105.456 31.859 104.888 32 104.235 32ZM104.235 31.1923C104.926 31.1923 105.463 30.9583 105.844 30.4904C106.232 30.0224 106.426 29.3558 106.426 28.4904C106.426 27.6314 106.232 26.9712 105.844 26.5096C105.463 26.0417 104.926 25.8077 104.235 25.8077C103.543 25.8077 103.006 26.0417 102.625 26.5096C102.243 26.9712 102.053 27.6314 102.053 28.4904C102.053 29.3558 102.243 30.0224 102.625 30.4904C103.013 30.9583 103.549 31.1923 104.235 31.1923Z" fill="#EE0978"/>
<path d="M110.958 25.0769H113.828C114.552 25.0769 115.115 25.2532 115.515 25.6058C115.923 25.9519 116.126 26.4263 116.126 27.0288C116.126 27.6314 115.92 28.109 115.506 28.4615C115.098 28.8077 114.539 28.9808 113.828 28.9808H111.957V31.9231H110.958V25.0769ZM113.712 28.1923C114.19 28.1923 114.549 28.0929 114.788 27.8942C115.034 27.6955 115.157 27.4071 115.157 27.0288C115.157 26.6571 115.034 26.3718 114.788 26.1731C114.549 25.9744 114.19 25.875 113.712 25.875H111.957V28.1923H113.712Z" fill="#EE0978"/>
<path d="M119.474 25.0769H123.954V25.8846H120.463V28.0385H123.76V28.8462H120.463V31.1154H123.954V31.9231H119.474V25.0769Z" fill="#EE0978"/>
<path d="M133 25.0769V31.9231H132.234L128.277 26.75V31.9231H127.337V25.0769H128.093L132.059 30.2596V25.0769H133Z" fill="#EE0978"/>
</svg>
